<svg width="20" height="20" viewBox="0 0 20 20" fill="none" xmlns="http://www.w3.org/2000/svg">
<path d="M10 0C4.4823 0 0 4.4823 0 10C0 15.5177 4.4823 20 10 20C15.5177 20 20 15.5177 20 10C20 4.4823 15.5177 0 10 0ZM10 0.869565C15.0477 0.869565 19.1304 4.95225 19.1304 10C19.1304 15.0477 15.0477 19.1304 10 19.1304C9.07668 19.1304 8.18596 18.9922 7.3463 18.7381C7.72032 18.1128 8.20319 17.219 8.39504 16.481C8.50901 16.0434 8.97758 14.2587 8.97758 14.2587C9.2821 14.84 10.1719 15.332 11.1192 15.332C13.9383 15.332 15.9706 12.7394 15.9706 9.51766C15.9706 6.42893 13.4502 4.11855 10.2072 4.11855C6.17254 4.11855 4.03108 6.82645 4.03108 9.77497C4.03108 11.1462 4.7604 12.8531 5.92816 13.3967C6.10505 13.4791 6.20003 13.4434 6.24066 13.2719C6.27194 13.1418 6.42968 12.5073 6.50051 12.2121C6.52316 12.1179 6.51219 12.0365 6.43597 11.9438C6.04948 11.475 5.73964 10.6138 5.73964 9.81063C5.73964 7.74872 7.30063 5.75323 9.96009 5.75323C12.2564 5.75323 13.8646 7.31864 13.8646 9.55673C13.8646 12.0853 12.5879 13.8375 10.9265 13.8375C10.0089 13.8375 9.3219 13.0784 9.54229 12.1476C9.80654 11.0366 10.3167 9.8378 10.3167 9.03533C10.3167 8.3177 9.93163 7.71909 9.13383 7.71909C8.19581 7.71909 7.44226 8.68889 7.44226 9.98896C7.44225 10.8162 7.72249 11.3765 7.72249 11.3765C7.72249 11.3765 6.79589 15.2941 6.62619 16.0233C6.45613 16.7519 6.50167 17.7332 6.57184 18.4638C3.22658 17.1098 0.869565 13.8345 0.869565 10C0.869565 4.95225 4.95225 0.869565 10 0.869565Z" fill="#041827"/>
</svg>
